<?xml version="1.0" encoding="UTF-8"?><svg xmlns="http://www.w3.org/2000/svg" xmlns:xlink="http://www.w3.org/1999/xlink" height="19.0" preserveAspectRatio="xMidYMid meet" version="1.0" viewBox="0.0 0.0 19.0 19.0" width="19.0" zoomAndPan="magnify"><g data-name="Layer 2"><g data-name="Layer 1" id="change1_1"><path d="M9.5,19A9.5,9.5,0,1,1,19,9.5,9.511,9.511,0,0,1,9.5,19ZM5.03,16.728a8.49,8.49,0,0,0,8.94,0C13.725,15.485,12.6,10.87,9.5,10.87S5.275,15.485,5.03,16.728ZM11.307,10.3c2.252,1.145,3.214,4.3,3.553,5.795a8.5,8.5,0,1,0-10.72,0c.339-1.492,1.3-4.65,3.553-5.795a3.14,3.14,0,1,1,3.614,0ZM9.5,5.59a2.14,2.14,0,1,0,2.14,2.14A2.142,2.142,0,0,0,9.5,5.59Z" fill="inherit"/></g></g></svg>